<?xml version="1.0" ?><svg id="Layer_1" style="enable-background:new 0 0 256 256;" version="1.1" viewBox="0 0 256 256" xml:space="preserve" xmlns="http://www.w3.org/2000/svg" xmlns:xlink="http://www.w3.org/1999/xlink"><style type="text/css">
	.st0{fill:#FFD6A4;}
	.st1{fill:#02A394;}
	.st2{fill:#4F3B80;}
	.st3{fill:#FF905B;}
	.st4{fill:#FDE7D9;}
	.st5{fill:#4F3A80;}
	.st6{fill:#FFFFFF;}
</style><g><path class="st0" d="M163.76,69.77h-3.7c-2.24-1.52-4.07-3.35-3.98-5.59v-0.43c-0.09-2.24,1.74-4.07,3.98-5.36h3.7   c2.24,1.29,4.07,3.12,3.7,5.36v0.43C167.83,66.42,166,68.25,163.76,69.77z M188.29,69.77h-8.53c-2.24-1.44-4.07-3.27-6.62-5.51   v-0.43c2.55-2.24,4.38-4.07,6.62-5.44h8.53c2.24,1.37,4.07,3.2,1.93,5.44v0.43c2.14,2.24,0.31,4.07-1.93,4.07V69.77z M163,80.8   l-3.64-0.66c-2.2-0.41-3.68-2.53-3.27-4.75l0.08-0.43c0.41-2.2,2.53-3.68,4.75-3.27l3.64,0.66c2.2,0.41,3.68,2.53,3.27,4.75   l-0.08,0.43C167.34,79.73,165.2,81.21,163,80.8L163,80.8z M187.1,85.32l-8.4-1.54c-2.2-0.41-3.68-2.53-3.27-4.75l0.08-0.43   c0.41-2.2,2.53-3.68,4.75-3.27l8.4,1.54c2.2,0.41,3.68,2.53,3.27,4.75l-0.08,0.43C191.44,84.25,189.3,85.71,187.1,85.32z    M163,47.19l-3.64,0.66c-2.2,0.41-3.68,2.53-3.27,4.75l0.08,0.43c0.41,2.2,2.53,3.68,4.75,3.27l3.64-0.66   c2.2-0.41,3.68-2.53,3.27-4.75l-0.08-0.43C167.34,48.26,165.2,46.78,163,47.19z M187.1,42.69l-8.4,1.54   c-2.2,0.41-3.68,2.53-3.27,4.75l0.08,0.43c0.41,2.2,2.53,3.68,4.75,3.27l8.4-1.54c2.2-0.41,3.68-2.53,3.27-4.75l-0.08-0.43   C191.44,43.74,189.3,42.28,187.1,42.69z"/><path class="st1" d="M116.26,64.08h11.38v17.07h-11.38V64.08z"/><path class="st2" d="M127.64,64.08v17.07h-11.38V64.08h17.07 M132.85,58.39h-16.12c-3.4,0-6.16,2.76-6.16,6.16v16.12   c0,3.4,2.76,6.16,6.16,6.16h16.12c3.4,0,6.16-2.76,6.16-6.16V64.56C139.02,61.15,136.26,58.39,132.85,58.39z"/><path class="st3" d="M116.26,64.08h11.38v17.07h-11.38V64.08z"/><path class="st0" d="M104.88,81.15h34.14v22.76h-34.14V81.15z"/><path class="st2" d="M139.02,81.15v22.76h-34.14V81.15H139.02 M138.54,75.46h-33.19c-3.4,0-6.16,2.76-6.16,6.16v21.81   c0,3.4,2.76,6.16,6.16,6.16h33.19c3.4,0,6.16-2.76,6.16-6.16V81.63C144.7,78.24,141.93,75.46,138.54,75.46z"/><path class="st3" d="M104.88,81.15h28.45v22.76h-28.45V81.15z"/><path class="st3" d="M96.67,200.63l-27.38-35.26l31.13-55.77h47.25l31.11,55.77l-27.36,35.26H96.67z"/><path class="st2" d="M147.67,109.6l31.13,55.77l-27.38,35.26H96.67l-27.38-35.26l31.13-55.77h49.98 M147.4,103.91h-46.73   c-2.24,0-4.3,1.21-5.39,3.16l-30.79,55.16c-1.22,2.17-1.01,4.86,0.52,6.83l27.09,34.87c1.17,1.5,2.96,2.38,4.87,2.38h54.17   c1.9,0,3.7-0.88,4.87-2.38l27.09-34.87c1.53-1.97,1.74-4.66,0.52-6.83l-30.78-55.14C151.72,105.13,149.65,103.91,147.4,103.91   L147.4,103.91z"/><path class="st0" d="M96.09,200.63l-26.51-35.26L99.9,109.6h39.65l29.48,55.77l-24.85,35.26H96.09z"/><path class="st4" d="M148.99,146.17c-8.32,0-8.32,5.83-16.64,5.83s-8.32-5.83-16.64-5.83S107.39,152,99.07,152   c-3.43,0-5.44-0.99-7.21-2.16l-7.99,15.35l18.68,24.06h42.98l18.68-24.06l-9.14-17.57C153.53,146.8,151.7,146.17,148.99,146.17z"/><path class="st3" d="M93.5,103.91h62.58v11.38H93.5V103.91z"/><path class="st2" d="M156.08,103.91v11.38H93.5v-11.38H156.08 M155.61,98.22H93.97c-3.4,0-6.16,2.76-6.16,6.16v10.43   c0,3.4,2.76,6.16,6.16,6.16h61.63c3.4,0,6.16-2.76,6.16-6.16v-10.43C161.77,100.98,159.01,98.22,155.61,98.22z"/><path class="st0" d="M93.5,103.91h56.89v11.38H93.5V103.91z"/><path class="st5" d="M140.65,92.53H121.4c-1.57,0-2.84-1.27-2.84-2.84c0-1.57,1.27-2.84,2.84-2.84h19.25   c1.57,0,2.84,1.27,2.84,2.84C143.49,91.26,142.22,92.53,140.65,92.53z"/><path class="st3" d="M121.95,120.98h5.69v11.38h-5.69V120.98z"/><path class="st2" d="M127.64,120.98v11.38h-5.69v-11.38H127.64 M133.33,115.29h-22.76v22.76h22.76v-24.89V115.29z"/><path class="st5" d="M138.16,180.81c-0.72,0-1.46-0.28-2.01-0.83l-13.3-13.3c-0.58-0.58-0.9-1.36-0.9-2.17v-24.95   c0-1.57,1.27-2.84,2.84-2.84s2.84,1.27,2.84,2.84v23.88l12.54,12.54c1.12,1.12,1.12,2.92,0,4.02   C139.6,180.54,138.88,180.81,138.16,180.81L138.16,180.81z"/><path class="st6" d="M98.55,139.85c-1.54-0.72-2.2-2.57-1.46-4.11l2.2-4.64c0.72-1.54,2.57-2.2,4.11-1.46   c1.54,0.72,2.2,2.57,1.46,4.11l-2.2,4.64C101.92,139.93,100.07,140.59,98.55,139.85z M85.71,166.97c-1.54-0.72-2.2-2.57-1.46-4.11   l8.61-18.2c0.72-1.54,2.57-2.2,4.11-1.46c1.54,0.72,2.2,2.57,1.46,4.11l-8.61,18.2C89.08,167.03,87.25,167.69,85.71,166.97z"/></g></svg>